<svg width="171" height="209" viewBox="0 0 171 209" fill="none" xmlns="http://www.w3.org/2000/svg">
<g clip-path="url(#clip0_353_671)">
<path d="M171 85.5C171 132.72 132.72 171 85.5 171C38.285 171 0 132.72 0 85.5C0 38.285 38.285 0 85.5 0C132.72 0 171 38.285 171 85.5Z" fill="#FFCC4D"/>
<path d="M137.75 133C150.867 133 161.5 122.367 161.5 109.25C161.5 96.1332 150.867 85.5 137.75 85.5C124.633 85.5 114 96.1332 114 109.25C114 122.367 124.633 133 137.75 133Z" fill="#FF7892"/>
<path d="M33.25 133C46.3668 133 57 122.367 57 109.25C57 96.1332 46.3668 85.5 33.25 85.5C20.1332 85.5 9.5 96.1332 9.5 109.25C9.5 122.367 20.1332 133 33.25 133Z" fill="#FF7892"/>
<path d="M116.375 104.5C130.803 104.5 142.5 92.8034 142.5 78.375C142.5 63.9466 130.803 52.25 116.375 52.25C101.947 52.25 90.25 63.9466 90.25 78.375C90.25 92.8034 101.947 104.5 116.375 104.5Z" fill="#F5F8FA"/>
<path d="M54.625 104.5C69.0534 104.5 80.75 92.8034 80.75 78.375C80.75 63.9466 69.0534 52.25 54.625 52.25C40.1966 52.25 28.5 63.9466 28.5 78.375C28.5 92.8034 40.1966 104.5 54.625 104.5Z" fill="#F5F8FA"/>
<path d="M54.625 90.25C61.1834 90.25 66.5 84.9334 66.5 78.375C66.5 71.8166 61.1834 66.5 54.625 66.5C48.0666 66.5 42.75 71.8166 42.75 78.375C42.75 84.9334 48.0666 90.25 54.625 90.25Z" fill="#292F33"/>
<path d="M116.375 90.25C122.933 90.25 128.25 84.9334 128.25 78.375C128.25 71.8166 122.933 66.5 116.375 66.5C109.817 66.5 104.5 71.8166 104.5 78.375C104.5 84.9334 109.817 90.25 116.375 90.25Z" fill="#292F33"/>
<path d="M104.5 142.5H66.5C65.2402 142.5 64.032 142 63.1412 141.109C62.2505 140.218 61.75 139.01 61.75 137.75C61.75 136.49 62.2505 135.282 63.1412 134.391C64.032 133.5 65.2402 133 66.5 133H104.5C105.76 133 106.968 133.5 107.859 134.391C108.75 135.282 109.25 136.49 109.25 137.75C109.25 139.01 108.75 140.218 107.859 141.109C106.968 142 105.76 142.5 104.5 142.5ZM142.505 52.25C141.767 52.2507 141.038 52.0794 140.378 51.7496C139.717 51.4198 139.143 50.9406 138.7 50.35C126.16 33.6253 109.91 33.2595 109.222 33.25C107.965 33.2387 106.764 32.73 105.882 31.8353C105 30.9406 104.508 29.7328 104.514 28.4763C104.517 27.2219 105.017 26.0198 105.905 25.1337C106.793 24.2476 107.996 23.75 109.25 23.75C110.124 23.75 130.801 23.9875 146.3 44.65C146.829 45.3554 147.151 46.1941 147.231 47.0723C147.31 47.9504 147.144 48.8333 146.75 49.6222C146.356 50.411 145.75 51.0746 145 51.5387C144.251 52.0028 143.386 52.2491 142.505 52.25ZM28.4953 52.25C27.6135 52.2491 26.7494 52.0028 25.9998 51.5387C25.2501 51.0746 24.6443 50.411 24.2504 49.6222C23.8565 48.8333 23.6899 47.9504 23.7693 47.0723C23.8487 46.1941 24.171 45.3554 24.7 44.65C40.1945 23.9875 60.876 23.75 61.75 23.75C62.3738 23.7488 62.9917 23.8704 63.5685 24.1079C64.1452 24.3455 64.6696 24.6943 65.1115 25.1345C65.5535 25.5747 65.9044 26.0977 66.1443 26.6735C66.3842 27.2493 66.5083 27.8667 66.5095 28.4905C66.5107 29.1143 66.3891 29.7322 66.1516 30.309C65.914 30.8858 65.5652 31.4101 65.125 31.852C64.6848 32.294 64.1618 32.6449 63.586 32.8848C63.0102 33.1247 62.3928 33.2488 61.769 33.25C61.0328 33.2595 44.821 33.6585 32.3 50.35C31.8571 50.9406 31.2826 51.4198 30.6221 51.7496C29.9617 52.0794 29.2335 52.2507 28.4953 52.25Z" fill="#664500"/>
</g>
<path d="M53.5957 195.348C53.5275 194.743 53.2463 194.274 52.752 193.942C52.2576 193.605 51.6355 193.437 50.8855 193.437C50.3485 193.437 49.8841 193.522 49.492 193.692C49.1 193.859 48.7953 194.089 48.5779 194.383C48.3649 194.673 48.2583 195.003 48.2583 195.374C48.2583 195.685 48.3308 195.953 48.4757 196.179C48.6248 196.405 48.8187 196.594 49.0574 196.748C49.3002 196.897 49.5602 197.023 49.8372 197.125C50.1142 197.223 50.3805 197.304 50.6362 197.368L51.9146 197.7C52.3322 197.803 52.7605 197.941 53.1994 198.116C53.6383 198.29 54.0453 198.521 54.4203 198.806C54.7953 199.092 55.0978 199.445 55.3279 199.867C55.5623 200.289 55.6795 200.794 55.6795 201.382C55.6795 202.124 55.4877 202.782 55.1042 203.357C54.725 203.933 54.1731 204.386 53.4487 204.719C52.7285 205.051 51.8571 205.217 50.8343 205.217C49.8542 205.217 49.0062 205.062 48.2903 204.751C47.5744 204.44 47.014 203.999 46.6092 203.428C46.2044 202.852 45.9806 202.17 45.938 201.382H47.9196C47.9579 201.855 48.1113 202.249 48.3798 202.565C48.6525 202.876 48.9998 203.108 49.4217 203.261C49.8478 203.411 50.3145 203.485 50.8216 203.485C51.3798 203.485 51.8762 203.398 52.3109 203.223C52.7498 203.044 53.095 202.797 53.3464 202.482C53.5978 202.162 53.7235 201.789 53.7235 201.363C53.7235 200.975 53.6127 200.658 53.3912 200.411C53.1738 200.163 52.8777 199.959 52.5027 199.797C52.1319 199.635 51.7122 199.492 51.2434 199.369L49.6966 198.947C48.6483 198.661 47.8173 198.241 47.2037 197.688C46.5943 197.134 46.2896 196.401 46.2896 195.489C46.2896 194.734 46.4941 194.076 46.9032 193.513C47.3123 192.951 47.8663 192.514 48.5652 192.203C49.264 191.888 50.0524 191.73 50.9302 191.73C51.8166 191.73 52.5985 191.886 53.2761 192.197C53.9579 192.508 54.4949 192.936 54.8869 193.482C55.2789 194.023 55.4835 194.645 55.5005 195.348H53.5957ZM59.7976 199.17V205H57.8864V191.909H59.772V196.78H59.8935C60.1236 196.251 60.4751 195.832 60.9482 195.521C61.4212 195.21 62.0391 195.054 62.8018 195.054C63.4751 195.054 64.0632 195.192 64.5661 195.469C65.0732 195.746 65.4652 196.16 65.7422 196.71C66.0234 197.255 66.1641 197.937 66.1641 198.755V205H64.2528V198.985C64.2528 198.265 64.0675 197.707 63.6967 197.31C63.326 196.91 62.8104 196.71 62.1499 196.71C61.6982 196.71 61.2933 196.805 60.9354 196.997C60.5817 197.189 60.3026 197.47 60.098 197.841C59.8977 198.207 59.7976 198.651 59.7976 199.17ZM71.5717 205.217C70.9496 205.217 70.3871 205.102 69.8842 204.872C69.3814 204.638 68.983 204.299 68.6889 203.856C68.3991 203.413 68.2543 202.869 68.2543 202.226C68.2543 201.672 68.3608 201.216 68.5739 200.858C68.7869 200.5 69.0746 200.217 69.4368 200.008C69.799 199.799 70.2038 199.641 70.6513 199.535C71.0987 199.428 71.5547 199.347 72.0192 199.292C72.6072 199.224 73.0845 199.168 73.451 199.126C73.8175 199.079 74.0838 199.004 74.25 198.902C74.4162 198.8 74.4993 198.634 74.4993 198.403V198.359C74.4993 197.8 74.3416 197.368 74.0263 197.061C73.7152 196.754 73.2507 196.601 72.6328 196.601C71.9893 196.601 71.4822 196.744 71.1115 197.029C70.745 197.31 70.4915 197.624 70.3509 197.969L68.5547 197.56C68.7678 196.963 69.0788 196.482 69.4879 196.115C69.9013 195.744 70.3764 195.476 70.9134 195.31C71.4503 195.139 72.0149 195.054 72.6072 195.054C72.9993 195.054 73.4148 195.101 73.8537 195.195C74.2969 195.284 74.7102 195.45 75.0938 195.693C75.4815 195.936 75.799 196.283 76.0462 196.735C76.2933 197.183 76.4169 197.764 76.4169 198.48V205H74.5504V203.658H74.4737C74.3501 203.905 74.1648 204.148 73.9176 204.386C73.6705 204.625 73.353 204.823 72.9652 204.981C72.5774 205.138 72.1129 205.217 71.5717 205.217ZM71.9872 203.683C72.5156 203.683 72.9673 203.579 73.3423 203.37C73.7216 203.161 74.0092 202.888 74.2053 202.552C74.4055 202.211 74.5057 201.847 74.5057 201.459V200.193C74.4375 200.261 74.3054 200.325 74.1094 200.385C73.9176 200.44 73.6982 200.489 73.451 200.532C73.2038 200.57 72.9631 200.607 72.7287 200.641C72.4943 200.67 72.2983 200.696 72.1406 200.717C71.7699 200.764 71.4311 200.843 71.1243 200.954C70.8217 201.065 70.5788 201.224 70.3956 201.433C70.2166 201.638 70.1271 201.911 70.1271 202.251C70.1271 202.724 70.3018 203.082 70.6513 203.325C71.0007 203.564 71.446 203.683 71.9872 203.683ZM78.9625 205V195.182H80.7971V196.78H80.9185C81.123 196.239 81.4576 195.817 81.9221 195.514C82.3865 195.207 82.9426 195.054 83.5904 195.054C84.2466 195.054 84.7963 195.207 85.2395 195.514C85.687 195.821 86.0172 196.243 86.2303 196.78H86.3326C86.5669 196.256 86.9398 195.838 87.4512 195.527C87.9625 195.212 88.5719 195.054 89.2793 195.054C90.1699 195.054 90.8965 195.333 91.459 195.891C92.0257 196.45 92.3091 197.291 92.3091 198.416V205H90.3979V198.595C90.3979 197.93 90.2168 197.449 89.8546 197.151C89.4924 196.852 89.0598 196.703 88.557 196.703C87.9348 196.703 87.4512 196.895 87.106 197.278C86.7608 197.658 86.5882 198.146 86.5882 198.742V205H84.6834V198.474C84.6834 197.941 84.5172 197.513 84.1848 197.189C83.8525 196.865 83.4199 196.703 82.8873 196.703C82.525 196.703 82.1905 196.799 81.8837 196.991C81.5811 197.178 81.3361 197.44 81.1486 197.777C80.9654 198.114 80.8738 198.504 80.8738 198.947V205H78.9625ZM99.1023 205.198C98.1349 205.198 97.3018 204.991 96.603 204.578C95.9084 204.161 95.3714 203.575 94.9922 202.82C94.6172 202.062 94.4297 201.173 94.4297 200.155C94.4297 199.149 94.6172 198.263 94.9922 197.496C95.3714 196.729 95.8999 196.13 96.5774 195.7C97.2592 195.269 98.0561 195.054 98.968 195.054C99.522 195.054 100.059 195.146 100.579 195.329C101.099 195.512 101.565 195.8 101.979 196.192C102.392 196.584 102.718 197.093 102.957 197.719C103.195 198.342 103.315 199.098 103.315 199.989V200.666H95.5099V199.234H101.442C101.442 198.732 101.339 198.286 101.135 197.898C100.93 197.506 100.643 197.197 100.272 196.972C99.9055 196.746 99.4751 196.633 98.9808 196.633C98.4439 196.633 97.9751 196.765 97.5746 197.029C97.1783 197.289 96.8714 197.63 96.6541 198.052C96.4411 198.469 96.3345 198.923 96.3345 199.413V200.532C96.3345 201.188 96.4496 201.746 96.6797 202.207C96.9141 202.667 97.2401 203.018 97.6577 203.261C98.0753 203.5 98.5632 203.619 99.1214 203.619C99.4837 203.619 99.8139 203.568 100.112 203.466C100.411 203.359 100.668 203.202 100.886 202.993C101.103 202.784 101.269 202.526 101.384 202.219L103.193 202.545C103.048 203.078 102.788 203.545 102.413 203.945C102.043 204.342 101.576 204.651 101.013 204.872C100.455 205.089 99.8182 205.198 99.1023 205.198ZM110.108 195.182V196.716H104.559V195.182H110.108ZM106.081 205V194.044C106.081 193.43 106.215 192.921 106.483 192.516C106.752 192.107 107.108 191.803 107.551 191.602C107.994 191.398 108.476 191.295 108.996 191.295C109.379 191.295 109.707 191.327 109.98 191.391C110.253 191.451 110.455 191.506 110.587 191.558L110.14 193.104C110.05 193.079 109.935 193.049 109.795 193.015C109.654 192.977 109.483 192.957 109.283 192.957C108.819 192.957 108.486 193.072 108.286 193.303C108.09 193.533 107.992 193.865 107.992 194.3V205H106.081ZM118.299 200.928V195.182H120.217V205H118.338V203.3H118.235C118.009 203.824 117.647 204.261 117.149 204.61C116.654 204.955 116.039 205.128 115.301 205.128C114.671 205.128 114.112 204.989 113.627 204.712C113.145 204.431 112.766 204.016 112.489 203.466C112.216 202.916 112.08 202.237 112.08 201.427V195.182H113.991V201.197C113.991 201.866 114.176 202.398 114.547 202.795C114.918 203.191 115.399 203.389 115.992 203.389C116.35 203.389 116.705 203.3 117.059 203.121C117.417 202.942 117.713 202.671 117.948 202.309C118.186 201.947 118.303 201.487 118.299 200.928ZM124.696 191.909V205H122.785V191.909H124.696Z" fill="#FAFAFA"/>
<defs>
<clipPath id="clip0_353_671">
<rect width="171" height="171" fill="white"/>
</clipPath>
</defs>
</svg>
